<svg width="1138" height="1071" viewBox="0 0 1138 1071" fill="none" xmlns="http://www.w3.org/2000/svg">
<path fill-rule="evenodd" clip-rule="evenodd" d="M655.058 952.452C536.588 976.547 429.623 1107.47 318.172 1060.58C207.555 1014.05 218.058 852.07 162.954 745.424C109.421 641.819 0.993643 562.005 0.295572 445.386C-0.434831 323.365 69.3646 208.133 159.244 125.657C245.641 46.3758 363.689 16.0189 480.4 4.82703C589.028 -5.58981 707.721 -1.94181 794.109 64.7768C874.928 127.194 857.931 253.02 913.072 338.984C975.716 436.645 1118.38 481.2 1134.89 596.053C1152.13 715.94 1094.15 850.333 996.954 922.527C902.803 992.457 769.975 929.078 655.058 952.452Z" fill="#2597A2" fill-opacity="0.1"/>
</svg>
